<?xml version="1.0" encoding="UTF-8"?>
<svg xmlns="http://www.w3.org/2000/svg" version="1.1" width="20" height="20" viewBox="0 0 20 20">
  <g>
    <path
      d="M1,5.1v6.2c0,1.2,1,2.2,2.2,2.2h13.5c1.2,0,2.2-1,2.2-2.2v-6.2c0-1.4-1.2-2.6-2.6-2.6H3.6c-1.4,0-2.6,1.2-2.6,2.6Z"
      fill="none" />
    <path
      d="M16.8,14.5H3.2c-.9,0-1.6-.3-2.2-.9v1.2c0,1.4,1.2,2.6,2.6,2.6h12.8c1.4,0,2.6-1.2,2.6-2.6v-1.2c-.6.6-1.4.9-2.2.9Z"
      opacity=".2" />
    <path
      d="M16.8,1.5H3.2C1.4,1.5,0,2.9,0,4.7v10.2c0,2,1.6,3.6,3.6,3.6h12.8c2,0,3.6-1.6,3.6-3.6V4.7c0-1.8-1.4-3.2-3.2-3.2ZM16.4,2.5c1.4,0,2.6,1.2,2.6,2.6v6.2c0,1.2-1,2.2-2.2,2.2H3.2c-1.2,0-2.2-1-2.2-2.2v-6.2c0-1.4,1.2-2.6,2.6-2.6h12.8ZM16.4,17.5H3.6c-1.4,0-2.6-1.2-2.6-2.6v-1.2c.6.6,1.4.9,2.2.9h13.5c.9,0,1.6-.3,2.2-.9v1.2c0,1.4-1.2,2.6-2.6,2.6Z" />
  </g>
</svg>